<svg xmlns="http://www.w3.org/2000/svg" xmlns:xlink="http://www.w3.org/1999/xlink" width="40" zoomAndPan="magnify" viewBox="0 0 30 30.000001" height="40" preserveAspectRatio="xMidYMid meet" version="1.0"><defs><clipPath id="9631d204cb"><path d="M 6.074219 0 L 24 0 L 24 29.03125 L 6.074219 29.03125 Z M 6.074219 0 " clip-rule="nonzero"/></clipPath></defs><g clip-path="url(#9631d204cb)"><path fill="#b42b18" d="M 15.027344 29.027344 C 14.367188 25.792969 13.207031 23.101562 11.800781 20.609375 C 10.757812 18.757812 9.546875 17.050781 8.429688 15.257812 C 8.054688 14.65625 7.734375 14.023438 7.375 13.402344 C 6.65625 12.160156 6.074219 10.71875 6.113281 8.851562 C 6.148438 7.023438 6.675781 5.558594 7.4375 4.363281 C 8.691406 2.394531 10.789062 0.777344 13.605469 0.351562 C 15.90625 0.0078125 18.0625 0.59375 19.59375 1.488281 C 20.84375 2.21875 21.8125 3.195312 22.550781 4.347656 C 23.316406 5.546875 23.847656 6.96875 23.890625 8.820312 C 23.914062 9.769531 23.757812 10.644531 23.539062 11.375 C 23.320312 12.113281 22.960938 12.730469 22.644531 13.386719 C 22.027344 14.671875 21.25 15.851562 20.472656 17.03125 C 18.15625 20.539062 15.980469 24.121094 15.027344 29.027344 Z M 15.027344 29.027344 " fill-opacity="1" fill-rule="evenodd"/></g><path fill="#ffffff" d="M 18.117188 8.832031 C 18.117188 9.242188 18.039062 9.640625 17.878906 10.023438 C 17.722656 10.40625 17.496094 10.742188 17.203125 11.035156 C 16.914062 11.324219 16.574219 11.550781 16.195312 11.707031 C 15.8125 11.867188 15.414062 11.945312 15.003906 11.945312 C 14.589844 11.945312 14.191406 11.867188 13.808594 11.707031 C 13.429688 11.550781 13.09375 11.324219 12.800781 11.035156 C 12.507812 10.742188 12.28125 10.40625 12.125 10.023438 C 11.964844 9.640625 11.886719 9.242188 11.886719 8.832031 C 11.886719 8.417969 11.964844 8.019531 12.125 7.640625 C 12.28125 7.257812 12.507812 6.921875 12.800781 6.628906 C 13.09375 6.335938 13.429688 6.109375 13.808594 5.953125 C 14.191406 5.796875 14.589844 5.714844 15.003906 5.714844 C 15.414062 5.714844 15.8125 5.796875 16.195312 5.953125 C 16.574219 6.109375 16.914062 6.335938 17.203125 6.628906 C 17.496094 6.921875 17.722656 7.257812 17.878906 7.640625 C 18.039062 8.019531 18.117188 8.417969 18.117188 8.832031 Z M 18.117188 8.832031 " fill-opacity="1" fill-rule="nonzero"/></svg>